<svg id="Icons" height="512" viewBox="0 0 74 74" width="512" xmlns="http://www.w3.org/2000/svg">
    <path d="m60 32.44a1 1 0 0 1 -1-1v-2.94a1 1 0 0 1 2 0v2.94a1 1 0 0 1 -1 1z" fill="#fff"/>
    <path d="m46 72h-30a3 3 0 0 1 -3-3v-64a3 3 0 0 1 3-3h42a3 3 0 0 1 3 3v6.56a1 1 0 1 1 -2 0v-6.56a1 1 0 0 0 -1-1h-42a1 1 0 0 0 -1 1v64a1 1 0 0 0 1 1h30a13.015 13.015 0 0 0 13-13v-18.56a1 1 0 0 1 2 0v18.56a15.017 15.017 0 0 1 -15 15z" fill="#fff"/>
    <path d="m60 22.5a1 1 0 0 1 -1-1v-2.94a1 1 0 0 1 2 0v2.94a1 1 0 0 1 -1 1z" fill="#fff"/>
    <path d="m53.5 35h-33a1 1 0 0 1 -1-1v-23a1 1 0 0 1 1-1h33a1 1 0 0 1 1 1v23a1 1 0 0 1 -1 1zm-32-2h31v-21h-31z" fill="#fff"/>
    <path d="m52.544 56.206a3.206 3.206 0 1 1 3.206-3.206 3.209 3.209 0 0 1 -3.206 3.206zm0-4.412a1.206 1.206 0 1 0 1.206 1.206 1.207 1.207 0 0 0 -1.206-1.206z" fill="#fff"/>
    <path d="m41.956 56.206a3.206 3.206 0 1 1 3.206-3.206 3.209 3.209 0 0 1 -3.206 3.206zm0-4.412a1.206 1.206 0 1 0 1.206 1.206 1.207 1.207 0 0 0 -1.206-1.206z" fill="#fff"/>
    <path d="m52.544 56.206a3.206 3.206 0 1 1 3.206-3.206 3.209 3.209 0 0 1 -3.206 3.206zm0-4.412a1.206 1.206 0 1 0 1.206 1.206 1.207 1.207 0 0 0 -1.206-1.206z" fill="#fff"/>
    <path d="m41.956 56.206a3.206 3.206 0 1 1 3.206-3.206 3.209 3.209 0 0 1 -3.206 3.206zm0-4.412a1.206 1.206 0 1 0 1.206 1.206 1.207 1.207 0 0 0 -1.206-1.206z" fill="#fff"/>
    <path d="m47.25 61.941a3.206 3.206 0 1 1 3.206-3.206 3.209 3.209 0 0 1 -3.206 3.206zm0-4.412a1.206 1.206 0 1 0 1.206 1.206 1.207 1.207 0 0 0 -1.206-1.206z" fill="#fff"/>
    <path d="m47.25 50.471a3.206 3.206 0 1 1 3.206-3.206 3.21 3.21 0 0 1 -3.206 3.206zm0-4.412a1.206 1.206 0 1 0 1.206 1.206 1.207 1.207 0 0 0 -1.206-1.206z" fill="#fff"/>
    <path d="m47.25 61.941a3.206 3.206 0 1 1 3.206-3.206 3.209 3.209 0 0 1 -3.206 3.206zm0-4.412a1.206 1.206 0 1 0 1.206 1.206 1.207 1.207 0 0 0 -1.206-1.206z" fill="#fff"/>
    <path d="m47.25 50.471a3.206 3.206 0 1 1 3.206-3.206 3.21 3.21 0 0 1 -3.206 3.206zm0-4.412a1.206 1.206 0 1 0 1.206 1.206 1.207 1.207 0 0 0 -1.206-1.206z" fill="#fff"/>
    <path d="m26.75 60.5a1 1 0 0 1 -1-1v-13a1 1 0 0 1 2 0v13a1 1 0 0 1 -1 1z" fill="#fff"/>
    <path d="m26.75 60.5a1 1 0 0 1 -1-1v-13a1 1 0 0 1 2 0v13a1 1 0 0 1 -1 1z" fill="#fff"/>
    <path d="m33.25 54h-13a1 1 0 0 1 0-2h13a1 1 0 0 1 0 2z" fill="#fff"/>
</svg>